<svg xmlns="http://www.w3.org/2000/svg" viewBox="0 0 48 48">
  <defs>
    <linearGradient id="clipMetal" x1="0%" y1="0%" x2="100%" y2="100%">
      <stop offset="0%" stop-color="#e8e8e8"/>
      <stop offset="30%" stop-color="#b0b8c8"/>
      <stop offset="60%" stop-color="#8090a8"/>
      <stop offset="100%" stop-color="#5a6678"/>
    </linearGradient>
    <linearGradient id="clipShine" x1="0%" y1="0%" x2="100%" y2="0%">
      <stop offset="0%" stop-color="#ffffff" stop-opacity="0.8"/>
      <stop offset="50%" stop-color="#ffffff" stop-opacity="0.1"/>
      <stop offset="100%" stop-color="#ffffff" stop-opacity="0"/>
    </linearGradient>
    <filter id="clipShadow">
      <feDropShadow dx="1" dy="2" stdDeviation="2" flood-color="#2a3a50" flood-opacity="0.45"/>
    </filter>
  </defs>
  <!-- Ombre du trombone -->
  <path d="M32 9 C39 9 42 14 42 20 L42 34 C42 40 37 44 31 44 L19 44 C15 44 12 41 12 38 L12 14 C12 9 16 6 20 6 C24 6 27 9 27 13 L27 35 C27 37 25.5 38.5 24 38.5 C22.5 38.5 21 37 21 35 L21 14"
        stroke="#2a3a50" stroke-width="6" fill="none" stroke-linecap="round" opacity="0.3" transform="translate(1,2)"/>
  <!-- Corps du trombone -->
  <path d="M32 9 C39 9 42 14 42 20 L42 34 C42 40 37 44 31 44 L19 44 C15 44 12 41 12 38 L12 14 C12 9 16 6 20 6 C24 6 27 9 27 13 L27 35 C27 37 25.5 38.5 24 38.5 C22.5 38.5 21 37 21 35 L21 14"
        stroke="url(#clipMetal)" stroke-width="4.5" fill="none" stroke-linecap="round" filter="url(#clipShadow)"/>
  <!-- Reflet brillant sur le trombone -->
  <path d="M32 9 C39 9 42 14 42 20 L42 34"
        stroke="url(#clipShine)" stroke-width="2" fill="none" stroke-linecap="round"/>
  <path d="M12 14 C12 9 16 6 20 6 C24 6 27 9 27 13 L27 22"
        stroke="url(#clipShine)" stroke-width="1.5" fill="none" stroke-linecap="round"/>
</svg>
